# xmcd CD database file
#
# Track frame offsets:
#	150
#	13820
#	30677
#	47890
#	60787
#	82152
#	93280
#	104845
#	117877
#	134130
#	147650
#	158562
#	177230
#	188245
#	199722
#	220860
#	240702
#	253775
#
# Disc length: 3552 seconds
#
# Revision: 4
# Processed by: cddbd v1.5.1PL0 Copyright (c) Steve Scherf et al.
# Submitted via: CDex 1.51
#
DISCID=0a0dde12
DTITLE=Blues Artists - Nothin' But the Blues - Disc 1
DYEAR=1999
DGENRE=Blues
TTITLE0=Muddy Waters - Hoochie Coochie Man
TTITLE1=John Lee Hooker - My first wife let me
TTITLE2=Howlin' Wolf - Shake it for me
TTITLE3=Memphis Slim - Only fools have fun
TTITLE4=Lightnin' Hopkins - Don't wake me
TTITLE5=Jimmy Reed - You're something else
TTITLE6=Lightnin' Hopkins - Lightnin's Boogie
TTITLE7=Lightning Slim - Oh baby
TTITLE8=Jimmy Reed - Cold and lonesome
TTITLE9=Muddy Waters - I got my mojo working
TTITLE10=John Lee Hooker - No Shoes
TTITLE11=Memphis Slim - Gambler's blues
TTITLE12=Jimmy Reed - Little rain
TTITLE13=Lightning Slim - Bad luck blues
TTITLE14=Lightnin' Hopkins - Goin' back home
TTITLE15=Howlin' Wolf - Howlin' for my darlin'
TTITLE16=John Lee Hooker - I'm so excited
TTITLE17=Muddy Waters - Baby please don't go
EXTD=YEAR: 1999
EXTT0=
EXTT1=
EXTT2=
EXTT3=
EXTT4=
EXTT5=
EXTT6=
EXTT7=
EXTT8=
EXTT9=
EXTT10=
EXTT11=
EXTT12=
EXTT13=
EXTT14=
EXTT15=
EXTT16=
EXTT17=
PLAYORDER=
